<svg width="352" height="144" viewBox="0 0 352 144" fill="none" xmlns="http://www.w3.org/2000/svg">
<path d="M4.306 143.99V118.25L118.156 118.448C123.964 118.448 128.386 117.128 131.422 114.488C134.59 111.716 136.174 107.294 136.174 101.222C136.174 95.15 134.59 90.794 131.422 88.154C128.386 85.382 123.964 83.996 118.156 83.996H47.272C32.62 83.996 21.202 80.498 13.018 73.502C4.966 66.374 0.94 55.946 0.94 42.218C0.94 28.49 4.966 18.128 13.018 11.132C21.202 4.004 32.62 0.439994 47.272 0.439994H158.548V26.18L50.638 25.982C44.962 25.982 40.54 27.302 37.372 29.942C34.204 32.45 32.62 36.542 32.62 42.218C32.62 47.894 34.204 52.052 37.372 54.692C40.54 57.2 44.962 58.454 50.638 58.454H121.522C136.174 58.454 147.526 62.084 155.578 69.344C163.762 76.472 167.854 87.098 167.854 101.222C167.854 115.214 163.762 125.84 155.578 133.1C147.526 140.36 136.174 143.99 121.522 143.99H4.306ZM244.939 143.99C230.551 143.99 219.199 142.142 210.883 138.446C202.567 134.618 196.627 128.876 193.063 121.22C189.499 113.564 187.717 103.928 187.717 92.312V1.42999H219.397V92.312C219.397 102.344 221.707 109.208 226.327 112.904C231.079 116.468 239.065 118.25 250.285 118.25H288.499C299.719 118.25 307.639 116.468 312.259 112.904C317.011 109.208 319.387 102.344 319.387 92.312V1.42999H351.067V92.312C351.067 103.928 349.285 113.564 345.721 121.22C342.157 128.876 336.217 134.618 327.901 138.446C319.585 142.142 308.233 143.99 293.845 143.99H244.939Z" fill="#2563EB"/>
</svg>
